<?xml version="1.0" encoding="UTF-8" standalone="no"?>
<svg xmlns="http://www.w3.org/2000/svg" height="50px" width="50px" version="1.1" viewBox="0 0 202 266">
 <path transform="translate(-75, 0)" d="m176.06 0.89615c-8.77 21.486-14.06 35.559-23.82 56.406 5.99 6.342 13.33 13.691 25.25 22.032-12.82-5.276-21.55-10.535-28.09-16.032-12.49 26.057-32.08 63.138-71.781 134.47 31.201-18.01 55.401-29.1 77.941-33.34-0.97-4.16-1.51-8.68-1.47-13.38l0.03-0.97c0.49-19.99 10.9-35.38 23.22-34.34s21.9 18.13 21.4 38.12c-0.09 3.76-0.51 7.37-1.25 10.72 22.29 4.37 46.24 15.43 77 33.19-6.07-11.17-11.51-21.22-16.68-30.81-8.15-6.32-16.63-14.54-33.97-23.44 11.91 3.1 20.47 6.66 27.12 10.66-52.6-97.938-56.87-110.95-74.9-153.28z" fill="#1793D1"/>
 <path transform="translate(15, 0)" d="m23.108 211.92c-6.929-0.01-12.68 1.41-14.903 2.19l-2.2892 12.36c-0.0056 0.04 11.393-3.04 16.413-2.86 8.313 0.3 9.078 3.18 8.933 7.06 0.142 0.23-2.145-3.51-9.336-3.64-9.073-0.15-21.878 3.22-21.86 16.91-0.24506 15.41 11.507 19.94 19.51 20.02 7.196-0.13 10.571-2.72 12.419-4.11 2.428-2.54 5.206-5.09 7.855-8.16-2.506 4.56-4.68 7.71-6.942 10.12v2.03l10.937-1.84 0.075-29.73c-0.111-4.21 2.414-20.31-20.812-20.35zm-1.572 25.89c4.534 0.06 9.733 2.29 9.741 7.67 0.023 4.9-6.129 7.53-10.13 7.48-4.002-0.04-9.313-3.14-9.336-7.91 0.077-4.26 5.008-7.35 9.725-7.24zm29.596-23.14l-0.074 49.23 12.742-2.45 0.021-27.92c0.004-4.15 5.94-9.01 13.389-8.93 1.581-2.86 4.553-10.17 5.277-11.84-16.642-0.04-16.853 4.79-19.748 7.16-0.03-4.53-0.01-7.24-0.01-7.24l-11.597 1.99zm71.708 6.46c-0.12-0.05-6.64-7.63-19.76-7.69-12.28-0.2-26.056 4.56-26.277 25.16 0.108 18.1 13.234 25.18 26.347 25.32 14.04 0.14 19.62-8.78 19.96-9-1.68-1.45-7.95-7.67-7.95-7.67s-3.92 5.58-11.52 5.65c-7.603 0.08-14.211-5.87-14.305-14.17-0.098-8.3 6.075-12.8 14.365-13.16 7.17 0 11.31 4.63 11.31 4.63l7.83-9.07zm16.06-23.69l-12.03 2.83 0.09 64.13 11.85-2.14 0.14-30.18c0.02-3.17 4.57-8.03 12.18-7.87 7.26 0.07 8.89 4.84 8.87 5.44l0.21 34.94 11.68-2.06 0.05-37.05c0.07-3.57-7.81-11.09-20.49-11.15-6.02 0.01-9.36 1.38-11.05 2.38-2.91 2.24-6.23 4.39-9.49 7.14 3.02-3.88 5.55-6.55 8.02-8.55l-0.03-17.86z" fill="#4D4D4D"/>
</svg>
