<?xml version="1.0" encoding="utf-8"?>
<svg version="1.1" xmlns="http://www.w3.org/2000/svg" xmlns:xlink="http://www.w3.org/1999/xlink" x="0px" y="0px"
  height="40px" width="40px" fill="#777" viewBox="0 0 1000 1000" enable-background="new 0 0 1000 1000"
  xml:space="preserve">
  <g>
    <g transform="translate(200,515) scale(0.15,-0.15)">
      <path
        d="M2356.3,2425.1C2230.9,2366.9,197.9,340.5,144.1,219.6C81.4,85.3,85.9-75.9,155.3-212.5c73.9-147.8,2033.1-2107,2180.9-2180.9c141.1-69.4,360.5-58.2,492.6,29.1c138.8,91.8,210.5,217.2,221.7,385.1c15.7,255.3,33.6,232.9-882.2,1153.1L1330.8,13.6l817.3,817.3c526.2,526.2,835.2,850.8,862,909.1c116.4,237.3,15.7,539.6-221.7,662.8C2647.4,2476.6,2483.9,2485.6,2356.3,2425.1z" />
    </g>
  </g>
</svg>