<?xml version="1.0" encoding="utf-8"?>
<svg version="1.1" xmlns="http://www.w3.org/2000/svg" xmlns:xlink="http://www.w3.org/1999/xlink" x="0px" y="0px"
  height="40px" width="40px" fill="#777" viewBox="0 0 1000 1000" enable-background="new 0 0 1000 1000"
  xml:space="preserve">
  <g transform="translate(-500,515) scale(0.15,-0.15)">
    <path
      d="M5920.9,3184.1c-145.5-47-275.4-150-331.4-259.7c-11.2-24.6-497.1-1222.5-1079.2-2664.5c-1139.7-2819-1108.3-2727.2-1025.5-2922c161.2-378.4,678.4-425.4,900.1-82.9c17.9,26.9,512.7,1236,1097.1,2684.6C6624,2765.4,6597.1,2687.1,6518.7,2875.2c-44.8,105.2-143.3,212.7-244.1,264.2C6176.2,3190.9,6003.8,3211,5920.9,3184.1z" />
    <path
      d="M7217.3,2404.9c-215-112-322.4-342.6-264.2-579.9c24.6-103,76.1-159,862-949.4c461.3-463.5,837.4-850.8,837.4-862.1c0-13.4-362.7-385.1-808.3-828.5c-450.1-450-828.4-846.4-855.3-895.6c-98.5-183.6-49.3-445.6,112-597.8c132.1-125.4,365-167.9,539.6-96.3c56,24.6,412,365,1141.9,1092.7c947.1,947.1,1061.3,1068,1092.7,1166.6c40.3,120.9,31.4,262-24.6,380.6c-17.9,38.1-510.5,546.3-1092.7,1126.3c-897.9,897.9-1070.3,1059.1-1146.4,1079.2C7463.6,2481.1,7349.4,2469.9,7217.3,2404.9z" />
  </g>
</svg>