<svg xmlns="http://www.w3.org/2000/svg" height="60px" width="60px" viewBox="0 0 128 128">

<defs><linearGradient id="a" x1="74.803" y1="20.543" x2="7.742" y2="62.786" gradientUnits="userSpaceOnUse"><stop offset="0" stop-color="#3fe1b0"/><stop offset=".406" stop-color="#00b3f4"/><stop offset=".421" stop-color="#03b0f4"/><stop offset=".818" stop-color="#5561e9"/><stop offset="1" stop-color="#7542e5"/></linearGradient><radialGradient id="b" cx="67.813" cy="8.879" r="80.797" gradientUnits="userSpaceOnUse"><stop offset=".108" stop-color="#3fe1b0"/><stop offset=".122" stop-color="#3bdcb3"/><stop offset=".254" stop-color="#1bb3d3"/><stop offset=".358" stop-color="#0799e6"/><stop offset=".42" stop-color="#0090ed"/><stop offset=".487" stop-color="#2482f1"/><stop offset=".64" stop-color="#7165fb"/><stop offset=".71" stop-color="#9059ff"/><stop offset=".795" stop-color="#7d49ed"/><stop offset=".86" stop-color="#7542e5"/></radialGradient><radialGradient id="c" cx="38.289" cy="41.911" r="80.797" gradientUnits="userSpaceOnUse"><stop offset=".3" stop-color="#45278d"/><stop offset=".341" stop-color="#562896" stop-opacity=".787"/><stop offset=".43" stop-color="#782aa9" stop-opacity=".364"/><stop offset=".495" stop-color="#8d2bb5" stop-opacity=".1"/><stop offset=".53" stop-color="#952bb9" stop-opacity="0"/></radialGradient><radialGradient id="d" cx="48.031" cy="-9.457" r="58.534" gradientUnits="userSpaceOnUse"><stop offset=".132" stop-color="#3fe1b0"/><stop offset=".289" stop-color="#28d0c8"/><stop offset=".526" stop-color="#00b3f4"/></radialGradient><radialGradient id="e" cx="29.352" cy="63.016" r="38.471" gradientUnits="userSpaceOnUse"><stop offset=".287" stop-color="#0060df"/><stop offset=".417" stop-color="#2357e1"/><stop offset=".604" stop-color="#4f4ce3"/><stop offset=".748" stop-color="#6b45e4"/><stop offset=".833" stop-color="#7542e5"/></radialGradient><radialGradient id="f" cx="39.38" cy="32.454" r="20.397" gradientTransform="matrix(.972 -.235 .275 1.138 -7.835 4.766)" gradientUnits="userSpaceOnUse"><stop offset=".206" stop-color="#45278d" stop-opacity="0"/><stop offset=".251" stop-color="#44268a" stop-opacity=".055"/><stop offset=".725" stop-color="#371f6f" stop-opacity=".591"/><stop offset=".956" stop-color="#321c64" stop-opacity=".8"/></radialGradient><radialGradient id="g" cx="31.355" cy="57.478" r=".626" gradientUnits="userSpaceOnUse"><stop offset=".353" stop-color="#3a8ee6"/><stop offset=".472" stop-color="#5c79f0"/><stop offset=".669" stop-color="#9059ff"/><stop offset="1" stop-color="#c139e6"/></radialGradient><radialGradient id="h" cx="31.52" cy="57.251" r=".224" gradientTransform="matrix(.972 -.235 .275 1.138 -14.885 -.516)" gradientUnits="userSpaceOnUse"><stop offset=".206" stop-color="#9059ff" stop-opacity="0"/><stop offset=".278" stop-color="#8c4ff3" stop-opacity=".064"/><stop offset=".747" stop-color="#7716a8" stop-opacity=".45"/><stop offset=".975" stop-color="#6e008b" stop-opacity=".6"/></radialGradient><radialGradient id="i" cx="37.269" cy="5.573" r="27.676" gradientUnits="userSpaceOnUse"><stop offset="0" stop-color="#0df"/><stop offset=".235" stop-color="#00d6fd"/><stop offset=".572" stop-color="#00c3f8"/><stop offset=".792" stop-color="#00b3f4"/></radialGradient><radialGradient id="j" cx="59.023" cy="-11.981" r="118.081" gradientUnits="userSpaceOnUse"><stop offset=".126" stop-color="#3fe1b0"/><stop offset=".429" stop-color="#0df"/><stop offset=".479" stop-color="#1ec1ff"/><stop offset=".624" stop-color="#7077ff"/><stop offset=".69" stop-color="#9059ff"/><stop offset=".904" stop-color="#b833e1"/></radialGradient><radialGradient id="k" cx="47.835" cy="1.141" r="86.499" gradientTransform="matrix(.105 .995 -.653 .069 43.572 -46.51)" gradientUnits="userSpaceOnUse"><stop offset="0" stop-color="#54ffbd"/><stop offset=".095" stop-color="#4cf3b8"/><stop offset=".197" stop-color="#3fe1b0"/><stop offset=".257" stop-color="#33d8bd"/><stop offset=".369" stop-color="#12c0e1"/><stop offset=".423" stop-color="#00b3f4"/><stop offset=".737" stop-color="#0060df"/></radialGradient><radialGradient id="l" cx="36.617" cy="15.824" r="73.72" gradientUnits="userSpaceOnUse"><stop offset=".137" stop-color="#3fe1b0"/><stop offset=".435" stop-color="#0df"/><stop offset=".484" stop-color="#1ec1ff"/><stop offset=".622" stop-color="#7077ff"/><stop offset=".685" stop-color="#9059ff"/></radialGradient><radialGradient id="m" cx="56.077" cy="20.139" r="80.686" gradientUnits="userSpaceOnUse"><stop offset=".094" stop-color="#54ffbd"/><stop offset=".242" stop-color="#41f7cc"/><stop offset=".543" stop-color="#0fe3f3"/><stop offset=".626" stop-color="#0df"/></radialGradient><linearGradient id="n" x1="70.013" y1="12.061" x2="15.267" y2="66.806" gradientUnits="userSpaceOnUse"><stop offset=".167" stop-color="#54ffbd" stop-opacity=".8"/><stop offset=".236" stop-color="#43f8ca" stop-opacity=".639"/><stop offset=".361" stop-color="#27ede1" stop-opacity=".368"/><stop offset=".466" stop-color="#12e4f1" stop-opacity=".169"/><stop offset=".545" stop-color="#05dffb" stop-opacity=".046"/><stop offset=".589" stop-color="#0df" stop-opacity="0"/></linearGradient></defs>
<path transform="translate(24,12.95)" d="M75.916 26.831c-1.684-4.052-5.1-8.427-7.775-9.81a40.266 40.266 0 0 1 3.925 11.764l.007.065C67.691 17.925 60.26 13.52 54.191 3.928a47.099 47.099 0 0 1-.913-1.484 12.24 12.24 0 0 1-.427-.8 7.053 7.053 0 0 1-.578-1.535.1.1 0 0 0-.088-.1.138.138 0 0 0-.073 0c-.005 0-.013.009-.019.011s-.019.011-.028.015l.015-.026c-9.735 5.7-13.038 16.252-13.342 21.53a19.387 19.387 0 0 0-10.666 4.111 11.587 11.587 0 0 0-1-.758 17.968 17.968 0 0 1-.109-9.473 28.705 28.705 0 0 0-9.329 7.21h-.018c-1.536-1.947-1.428-8.367-1.34-9.708a6.928 6.928 0 0 0-1.294.687 28.225 28.225 0 0 0-3.788 3.245A33.845 33.845 0 0 0 7.571 21.2v.006-.007a32.733 32.733 0 0 0-5.2 11.743l-.052.256a61.89 61.89 0 0 0-.381 2.42c0 .029-.006.056-.009.085a36.937 36.937 0 0 0-.629 5.343v.2A38.759 38.759 0 0 0 78.254 47.8c.065-.5.118-.995.176-1.5a39.857 39.857 0 0 0-2.514-19.469zm-44.67 30.338c.181.087.351.181.537.264l.027.017q-.282-.135-.564-.281zm8.878-23.376zm31.952-4.934v-.037l.007.041z" fill="url(#a)"/><path transform="translate(24,12.95)" d="M72.078 28.863l-.007-.041v.037z" fill="none"/><path transform="translate(24,12.95)" d="M75.916 26.831c-1.684-4.052-5.1-8.427-7.775-9.81a40.266 40.266 0 0 1 3.925 11.764v.037l.007.041a35.1 35.1 0 0 1-1.206 26.158c-4.442 9.531-15.194 19.3-32.024 18.825-18.185-.515-34.2-14.009-37.194-31.683-.545-2.787 0-4.2.274-6.465a28.876 28.876 0 0 0-.623 5.348v.2A38.759 38.759 0 0 0 78.254 47.8c.065-.5.118-.995.176-1.5a39.857 39.857 0 0 0-2.514-19.469z" fill="url(#b)"/><path transform="translate(24,12.95)" d="M75.916 26.831c-1.684-4.052-5.1-8.427-7.775-9.81a40.266 40.266 0 0 1 3.925 11.764v.037l.007.041a35.1 35.1 0 0 1-1.206 26.158c-4.442 9.531-15.194 19.3-32.024 18.825-18.185-.515-34.2-14.009-37.194-31.683-.545-2.787 0-4.2.274-6.465a28.876 28.876 0 0 0-.623 5.348v.2A38.759 38.759 0 0 0 78.254 47.8c.065-.5.118-.995.176-1.5a39.857 39.857 0 0 0-2.514-19.469z" fill="url(#c)"/><path transform="translate(24,12.95)" d="M57.082 31.387c.084.059.162.118.241.177a21.1 21.1 0 0 0-3.6-4.695C41.677 14.821 50.566.746 52.065.031l.015-.022c-9.735 5.7-13.038 16.252-13.342 21.53.452-.031.9-.069 1.362-.069a19.56 19.56 0 0 1 16.982 9.917z" fill="url(#d)"/><path transform="translate(24,12.95)" d="M40.125 33.793c-.064.964-3.47 4.289-4.661 4.289-11.021 0-12.81 6.667-12.81 6.667.488 5.614 4.4 10.238 9.129 12.684.216.112.435.213.654.312q.569.252 1.138.466a17.235 17.235 0 0 0 5.043.973c19.317.906 23.059-23.1 9.119-30.066a13.38 13.38 0 0 1 9.345 2.269A19.56 19.56 0 0 0 40.1 21.47c-.46 0-.91.038-1.362.069a19.387 19.387 0 0 0-10.666 4.111c.591.5 1.258 1.168 2.663 2.553 2.63 2.591 9.375 5.275 9.39 5.59z" fill="url(#e)"/><path transform="translate(24,12.95)" d="M40.125 33.793c-.064.964-3.47 4.289-4.661 4.289-11.021 0-12.81 6.667-12.81 6.667.488 5.614 4.4 10.238 9.129 12.684.216.112.435.213.654.312q.569.252 1.138.466a17.235 17.235 0 0 0 5.043.973c19.317.906 23.059-23.1 9.119-30.066a13.38 13.38 0 0 1 9.345 2.269A19.56 19.56 0 0 0 40.1 21.47c-.46 0-.91.038-1.362.069a19.387 19.387 0 0 0-10.666 4.111c.591.5 1.258 1.168 2.663 2.553 2.63 2.591 9.375 5.275 9.39 5.59z" fill="url(#f)"/><path transform="translate(24,12.95)" d="M31.246 57.169q.282.145.564.281l-.027-.017c-.183-.083-.356-.177-.537-.264z" fill="url(#g)"/><path transform="translate(24,12.95)" d="M31.246 57.169q.282.145.564.281l-.027-.017c-.183-.083-.356-.177-.537-.264z" fill="url(#h)"/><path transform="translate(24,12.95)" d="M26.265 24.361c.314.2.573.374.8.531a17.968 17.968 0 0 1-.109-9.473 28.705 28.705 0 0 0-9.329 7.21c.189-.005 5.811-.106 8.638 1.732z" fill="url(#i)"/><path transform="translate(24,12.95)" d="M1.654 42.163c2.991 17.674 19.009 31.168 37.194 31.683 16.83.476 27.582-9.294 32.024-18.825a35.1 35.1 0 0 0 1.206-26.158v-.037c0-.029-.006-.046 0-.037l.007.065c1.375 8.977-3.191 17.674-10.329 23.555l-.022.05c-13.908 11.327-27.218 6.834-29.912 5q-.282-.135-.564-.281c-8.109-3.876-11.459-11.264-10.741-17.6a9.953 9.953 0 0 1-9.181-5.775 14.618 14.618 0 0 1 14.249-.572 19.3 19.3 0 0 0 14.552.572c-.015-.315-6.76-3-9.39-5.59-1.405-1.385-2.072-2.052-2.663-2.553a11.587 11.587 0 0 0-1-.758c-.23-.157-.489-.327-.8-.531-2.827-1.838-8.449-1.737-8.635-1.732h-.018c-1.536-1.947-1.428-8.367-1.34-9.708a6.928 6.928 0 0 0-1.294.687 28.225 28.225 0 0 0-3.788 3.245A33.845 33.845 0 0 0 7.571 21.2v.006-.007a32.733 32.733 0 0 0-5.2 11.743c-.019.079-1.396 6.099-.717 9.221z" fill="url(#j)"/><path transform="translate(24,12.95)" fill="#ff4aa2" d="M40.125 33.793h-.001.001z"/><path transform="translate(24,12.95)" d="M53.725 26.869a21.1 21.1 0 0 1 3.6 4.7c.213.161.412.321.581.476 8.787 8.1 4.183 19.55 3.84 20.365 7.138-5.881 11.7-14.578 10.329-23.555C67.691 17.925 60.26 13.52 54.191 3.928a47.099 47.099 0 0 1-.913-1.484 12.24 12.24 0 0 1-.427-.8 7.053 7.053 0 0 1-.578-1.535.1.1 0 0 0-.088-.1.138.138 0 0 0-.073 0c-.005 0-.013.009-.019.011s-.019.011-.028.015c-1.499.711-10.388 14.786 1.66 26.834z" fill="url(#k)"/><path transform="translate(24,12.95)" d="M57.9 32.04a8.083 8.083 0 0 0-.581-.476c-.079-.059-.157-.118-.241-.177a13.38 13.38 0 0 0-9.345-2.269c13.94 6.97 10.2 30.972-9.119 30.066a17.235 17.235 0 0 1-5.043-.973q-.569-.213-1.138-.466c-.219-.1-.438-.2-.654-.312l.027.017c2.694 1.839 16 6.332 29.912-5l.022-.05c.347-.81 4.951-12.263-3.84-20.36z" fill="url(#l)"/><path transform="translate(24,12.95)" d="M22.654 44.749s1.789-6.667 12.81-6.667c1.191 0 4.6-3.325 4.661-4.289a19.3 19.3 0 0 1-14.552-.572 14.618 14.618 0 0 0-14.249.572 9.953 9.953 0 0 0 9.181 5.775c-.718 6.337 2.632 13.725 10.741 17.6.181.087.351.181.537.264-4.733-2.445-8.641-7.069-9.129-12.683z" fill="url(#m)"/><path transform="translate(24,12.95)" fill="#ff4aa2" d="M49.458 38.459l-.001.001.001-.001z"/><path transform="translate(24,12.95)" d="M75.916 26.831c-1.684-4.052-5.1-8.427-7.775-9.81a40.266 40.266 0 0 1 3.925 11.764l.007.065C67.691 17.925 60.26 13.52 54.191 3.928a47.099 47.099 0 0 1-.913-1.484 12.24 12.24 0 0 1-.427-.8 7.053 7.053 0 0 1-.578-1.535.1.1 0 0 0-.088-.1.138.138 0 0 0-.073 0c-.005 0-.013.009-.019.011s-.019.011-.028.015l.015-.026c-9.735 5.7-13.038 16.252-13.342 21.53.452-.031.9-.069 1.362-.069a19.56 19.56 0 0 1 16.982 9.917 13.38 13.38 0 0 0-9.345-2.269c13.94 6.97 10.2 30.972-9.119 30.066a17.235 17.235 0 0 1-5.043-.973q-.569-.213-1.138-.466c-.219-.1-.438-.2-.654-.312l.027.017q-.282-.135-.564-.281c.181.087.351.181.537.264-4.733-2.446-8.641-7.07-9.129-12.684 0 0 1.789-6.667 12.81-6.667 1.191 0 4.6-3.325 4.661-4.289-.015-.315-6.76-3-9.39-5.59-1.405-1.385-2.072-2.052-2.663-2.553a11.587 11.587 0 0 0-1-.758 17.968 17.968 0 0 1-.109-9.473 28.705 28.705 0 0 0-9.329 7.21h-.018c-1.536-1.947-1.428-8.367-1.34-9.708a6.928 6.928 0 0 0-1.294.687 28.225 28.225 0 0 0-3.788 3.245A33.845 33.845 0 0 0 7.571 21.2v.006-.007a32.733 32.733 0 0 0-5.2 11.743l-.052.256c-.073.341-.4 2.073-.447 2.445 0 .028 0-.029 0 0a45.094 45.094 0 0 0-.572 5.403v.2A38.759 38.759 0 0 0 78.254 47.8c.065-.5.118-.995.176-1.5a39.857 39.857 0 0 0-2.514-19.469zm-3.845 1.991l.007.041z" fill="url(#n)"/>

<path fill="#777" d="M26.877 109.18v4.908h5.39v3.121h-5.39v7.337h-4.375v-18.489h11.019l-.454 3.123h-6.19zm13.219-5.59c.472.453.708 1.027.708 1.721s-.236 1.267-.708 1.721c-.471.453-1.071.68-1.8.68-.73 0-1.326-.227-1.787-.68-.463-.454-.694-1.027-.694-1.721s.231-1.268.694-1.721c.461-.454 1.057-.68 1.787-.68.728 0 1.329.226 1.8.68zm-3.881 20.956v-14.167h4.215v14.167h-4.215zm16.62-14.379l-.667 4.082c-.533-.125-.96-.187-1.28-.187-.836 0-1.472.289-1.907.867-.437.578-.778 1.445-1.027 2.602v7.016h-4.216V110.38h3.683l.347 2.748c.319-.977.804-1.747 1.453-2.307.649-.561 1.384-.84 2.201-.84.516-.001.986.061 1.413.186zm13.605 8.536h-8.776c.142 1.192.479 2.027 1.014 2.508.533.48 1.271.721 2.214.721.569 0 1.12-.103 1.654-.307.533-.205 1.111-.521 1.734-.947l1.733 2.348C64.36 124.342 62.519 125 60.491 125c-2.294 0-4.055-.675-5.282-2.027-1.227-1.352-1.841-3.166-1.841-5.442 0-1.441.258-2.735.774-3.882.516-1.147 1.271-2.054 2.268-2.721.995-.667 2.188-1 3.574-1 2.045 0 3.646.64 4.803 1.92 1.155 1.28 1.733 3.06 1.733 5.335.001.587-.026 1.093-.08 1.52zm-4.054-2.721c-.035-2.169-.8-3.255-2.294-3.255-.729 0-1.294.267-1.694.8-.4.534-.646 1.415-.733 2.641h4.722v-.186zm11.737-8.137c-.267.285-.399.766-.399 1.441v1.093h3.335l-.454 2.936h-2.881v11.231h-4.215v-11.231h-2.135v-2.936h2.135v-1.253c0-1.423.466-2.583 1.4-3.482.934-.898 2.271-1.347 4.015-1.347 1.405 0 2.694.303 3.868.907l-1.146 2.748a4.907 4.907 0 00-2.215-.534c-.606 0-1.04.143-1.308.427zm15.287 4.068c1.227 1.326 1.841 3.18 1.841 5.563 0 1.513-.28 2.833-.84 3.962-.561 1.129-1.361 2.005-2.401 2.628-1.041.622-2.272.933-3.695.933-2.151 0-3.846-.662-5.082-1.987-1.236-1.324-1.854-3.179-1.854-5.562 0-1.512.28-2.833.841-3.961.561-1.13 1.36-2.006 2.401-2.628 1.04-.623 2.271-.934 3.694-.934 2.169 0 3.868.662 5.095 1.986zm-7.016 2.188c-.427.721-.641 1.837-.641 3.349 0 1.547.21 2.677.627 3.388.419.711 1.063 1.067 1.935 1.067.854 0 1.494-.359 1.921-1.08s.64-1.836.64-3.349c0-1.547-.209-2.676-.626-3.388-.418-.711-1.063-1.067-1.935-1.067-.854 0-1.495.36-1.921 1.08zm18.328 10.445l-2.454-5.309-2.401 5.309h-4.589l4.563-7.443-4.108-6.724h4.722l1.975 4.536 1.895-4.536h4.481l-3.868 6.59 4.563 7.577h-4.779z"/></svg>
